<?xml version="1.0" encoding="UTF-8" standalone="no"?>
<!-- Created with Inkscape (http://www.inkscape.org/) -->

<svg
   width="50"
   height="50"
   viewBox="0 0 10 10"
   version="1.1"
   id="svg1"
   inkscape:version="1.4.2 (f4327f4, 2025-05-13)"
   sodipodi:docname="rocket.svg"
   xmlns:inkscape="http://www.inkscape.org/namespaces/inkscape"
   xmlns:sodipodi="http://sodipodi.sourceforge.net/DTD/sodipodi-0.dtd"
   xmlns="http://www.w3.org/2000/svg"
   xmlns:svg="http://www.w3.org/2000/svg">
  <sodipodi:namedview
     id="namedview1"
     pagecolor="#ffffff"
     bordercolor="#000000"
     borderopacity="0.25"
     inkscape:showpageshadow="2"
     inkscape:pageopacity="0.0"
     inkscape:pagecheckerboard="false"
     inkscape:deskcolor="#d1d1d1"
     inkscape:document-units="px"
     showgrid="true"
     inkscape:zoom="11.01807"
     inkscape:cx="27.0011"
     inkscape:cy="21.28322"
     inkscape:window-width="1920"
     inkscape:window-height="991"
     inkscape:window-x="-9"
     inkscape:window-y="-9"
     inkscape:window-maximized="1"
     inkscape:current-layer="layer1"
     labelstyle="default">
    <inkscape:grid
       id="grid1"
       units="mm"
       originx="0"
       originy="0"
       spacingx="0.99999999"
       spacingy="0.99999999"
       empcolor="#0099e5"
       empopacity="0.30196078"
       color="#0099e5"
       opacity="0.14901961"
       empspacing="5"
       enabled="true"
       visible="true" />
  </sodipodi:namedview>
  <defs
     id="defs1" />
  <g
     inkscape:label="Layer 1"
     inkscape:groupmode="layer"
     id="layer1">
    <rect
       style="fill:#000000;stroke-width:0.2;fill-opacity:0"
       id="rect398"
       width="1"
       height="1"
       x="-7"
       y="0"
       ry="0.37795275" />
    <rect
       style="fill:#800000;stroke-width:0.2"
       id="rect400"
       width="1"
       height="1"
       x="0"
       y="0"
       ry="0.37795275" />
    <rect
       style="fill:#800000;stroke-width:0.2"
       id="rect401"
       width="1"
       height="1"
       x="4"
       y="2"
       ry="0.37795275" />
    <rect
       style="fill:#800000;stroke-width:0.2"
       id="rect402"
       width="1"
       height="1"
       x="5"
       y="2"
       ry="0.37795275" />
    <rect
       style="fill:#800000;stroke-width:0.2"
       id="rect403"
       width="1"
       height="1"
       x="3"
       y="3"
       ry="0.37795275" />
    <rect
       style="fill:#800000;stroke-width:0.2"
       id="rect404"
       width="1"
       height="1"
       x="6"
       y="3"
       ry="0.37795275" />
    <rect
       style="fill:#800000;stroke-width:0.2"
       id="rect405"
       width="1"
       height="1"
       x="3"
       y="4"
       ry="0.37795275" />
    <rect
       style="fill:#800000;stroke-width:0.2"
       id="rect406"
       width="1"
       height="1"
       x="6"
       y="4"
       ry="0.37795275" />
    <rect
       style="fill:#800000;stroke-width:0.2"
       id="rect407"
       width="1"
       height="1"
       x="3"
       y="5"
       ry="0.37795275" />
    <rect
       style="fill:#800000;stroke-width:0.2"
       id="rect408"
       width="1"
       height="1"
       x="2"
       y="6"
       ry="0.37795275" />
    <rect
       style="fill:#800000;stroke-width:0.2"
       id="rect409"
       width="1"
       height="1"
       x="6"
       y="5"
       ry="0.37795275" />
    <rect
       style="fill:#800000;stroke-width:0.2"
       id="rect410"
       width="1"
       height="1"
       x="7"
       y="6"
       ry="0.37795275" />
    <rect
       style="fill:#800000;stroke-width:0.2"
       id="rect399"
       width="1"
       height="1"
       x="7"
       y="6"
       ry="0.37795275" />
    <rect
       style="fill:#0066ff;stroke-width:0.2"
       id="rect412"
       width="1"
       height="1"
       x="4"
       y="3"
       ry="0.37795275" />
    <rect
       style="fill:#0066ff;stroke-width:0.2"
       id="rect413"
       width="1"
       height="1"
       x="5"
       y="3"
       ry="0.37795275" />
    <rect
       style="fill:#0066ff;stroke-width:0.2"
       id="rect414"
       width="1"
       height="1"
       x="4.508368"
       y="4"
       ry="0.37795275" />
    <rect
       style="fill:#0066ff;stroke-width:0.2"
       id="rect415"
       width="1"
       height="1"
       x="4.508368"
       y="5"
       ry="0.37795275" />
    <rect
       style="fill:#0066ff;stroke-width:0.2"
       id="rect416"
       width="1"
       height="1"
       x="4"
       y="6"
       ry="0.37795275" />
    <rect
       style="fill:#0066ff;stroke-width:0.2"
       id="rect417"
       width="1"
       height="1"
       x="5"
       y="6"
       ry="0.37795275" />
    <rect
       style="fill:#0066ff;stroke-width:0.2"
       id="rect418"
       width="1"
       height="1"
       x="4.544672"
       y="7"
       ry="0.37795275" />
    <rect
       style="fill:#0066ff;stroke-width:0.2"
       id="rect419"
       width="1"
       height="1"
       x="1"
       y="7"
       ry="0.37795275" />
    <rect
       style="fill:#0066ff;stroke-width:0.2"
       id="rect420"
       width="1"
       height="1"
       x="8"
       y="7"
       ry="0.37795275" />
    <rect
       style="fill:#0066ff;stroke-width:0.2"
       id="rect421"
       width="1"
       height="1"
       x="0"
       y="8"
       ry="0.37795275" />
    <rect
       style="fill:#0066ff;stroke-width:0.2"
       id="rect422"
       width="1"
       height="1"
       x="1"
       y="8"
       ry="0.37795275" />
    <rect
       style="fill:#0066ff;stroke-width:0.2"
       id="rect423"
       width="1"
       height="1"
       x="9"
       y="8"
       ry="0.37795275" />
    <rect
       style="fill:#0066ff;stroke-width:0.2"
       id="rect424"
       width="1"
       height="1"
       x="8"
       y="8"
       ry="0.37795275" />
    <rect
       style="fill:#0066ff;stroke-width:0.2"
       id="rect411"
       width="1"
       height="1"
       x="1"
       y="7"
       ry="0.37795275" />
    <rect
       style="fill:#5f5fd3;stroke-width:0.2"
       id="rect426"
       width="1"
       height="1"
       x="4.544672"
       y="8"
       ry="0.37795275" />
    <rect
       style="fill:#5f5fd3;stroke-width:0.2"
       id="rect427"
       width="1"
       height="1"
       x="3.544672"
       y="7"
       ry="0.37795275" />
    <rect
       style="fill:#5f5fd3;stroke-width:0.2"
       id="rect428"
       width="1"
       height="1"
       x="5.544672"
       y="7"
       ry="0.37795275" />
    <rect
       style="fill:#5f5fd3;stroke-width:0.2"
       id="rect429"
       width="1"
       height="1"
       x="3"
       y="6"
       ry="0.37795275" />
    <rect
       style="fill:#5f5fd3;stroke-width:0.2"
       id="rect430"
       width="1"
       height="1"
       x="6"
       y="6"
       ry="0.37795275" />
    <rect
       style="fill:#5f5fd3;stroke-width:0.2"
       id="rect431"
       width="1"
       height="1"
       x="3.508368"
       y="4.3927841"
       ry="0.37795275" />
    <rect
       style="fill:#5f5fd3;stroke-width:0.2"
       id="rect432"
       width="1"
       height="1"
       x="5.508368"
       y="4.4653921"
       ry="0.37795275" />
    <rect
       style="fill:#5f5fd3;stroke-width:0.2"
       id="rect433"
       width="1"
       height="1"
       x="2.544672"
       y="8"
       ry="0.37795275" />
    <rect
       style="fill:#5f5fd3;stroke-width:0.2"
       id="rect434"
       width="1"
       height="1"
       x="6.544672"
       y="8"
       ry="0.37795275" />
    <rect
       style="fill:#5f5fd3;stroke-width:0.2"
       id="rect435"
       width="1"
       height="1"
       x="4.544672"
       y="9"
       ry="0.37795275" />
    <rect
       style="fill:#5f5fd3;stroke-width:0.2"
       id="rect436"
       width="1"
       height="1"
       x="2.544672"
       y="9"
       ry="0.37795275" />
    <rect
       style="fill:#5f5fd3;stroke-width:0.2"
       id="rect437"
       width="1"
       height="1"
       x="6.544672"
       y="9"
       ry="0.37795275" />
    <rect
       style="fill:#5f5fd3;stroke-width:0.2"
       id="rect438"
       width="1"
       height="1"
       x="9"
       y="0"
       ry="0.37795275" />
    <rect
       style="fill:#5f5fd3;stroke-width:0.2"
       id="rect439"
       width="1"
       height="1"
       x="4.5265203"
       y="0"
       ry="0.37795275" />
    <rect
       style="fill:#5f5fd3;stroke-width:0.2"
       id="rect440"
       width="1"
       height="1"
       x="4.5265203"
       y="1"
       ry="0.37795275" />
    <rect
       style="fill:#5f5fd3;stroke-width:0.2"
       id="rect442"
       width="1"
       height="1"
       x="0"
       y="0"
       ry="0.37795275" />
    <rect
       style="fill:#ffff00;stroke-width:0.2"
       id="rect444"
       width="1"
       height="1"
       x="3.544672"
       y="8"
       ry="0.37795275" />
    <rect
       style="fill:#ffff00;stroke-width:0.2"
       id="rect445"
       width="1"
       height="1"
       x="3.544672"
       y="9"
       ry="0.37795275" />
    <rect
       style="fill:#ffff00;stroke-width:0.2"
       id="rect446"
       width="1"
       height="1"
       x="5.544672"
       y="8"
       ry="0.37795275" />
    <rect
       style="fill:#ffff00;stroke-width:0.2"
       id="rect447"
       width="1"
       height="1"
       x="5.544672"
       y="9"
       ry="0.37795275" />
    <rect
       style="fill:#ffff00;stroke-width:0.2"
       id="rect448"
       width="1"
       height="1"
       x="2.544672"
       y="7"
       ry="0.37795275" />
    <rect
       style="fill:#ffff00;stroke-width:0.2"
       id="rect449"
       width="1"
       height="1"
       x="6.544672"
       y="7"
       ry="0.37795275" />
    <rect
       style="fill:#ffff00;stroke-width:0.2"
       id="rect450"
       width="1"
       height="1"
       x="2"
       y="7"
       ry="0.37795275" />
    <rect
       style="fill:#ffff00;stroke-width:0.2"
       id="rect451"
       width="1"
       height="1"
       x="7"
       y="7"
       ry="0.37795275" />
    <rect
       style="fill:#ffff00;stroke-width:0.2"
       id="rect452"
       width="1"
       height="1"
       x="1.544672"
       y="8"
       ry="0.37795275" />
    <rect
       style="fill:#ffff00;stroke-width:0.2"
       id="rect453"
       width="1"
       height="1"
       x="7.544672"
       y="8"
       ry="0.37795275" />
    <rect
       style="fill:#ffff00;stroke-width:0.2"
       id="rect454"
       width="1"
       height="1"
       x="1.544672"
       y="9"
       ry="0.37795275" />
    <rect
       style="fill:#ffff00;stroke-width:0.2"
       id="rect455"
       width="1"
       height="1"
       x="7.544672"
       y="9"
       ry="0.37795275" />
    <rect
       style="fill:#ff0000;stroke-width:0.2"
       id="rect457"
       width="1"
       height="1"
       x="1.544672"
       y="9"
       ry="0.37795275" />
    <rect
       style="fill:#ff0000;stroke-width:0.2"
       id="rect458"
       width="1"
       height="1"
       x="7.544672"
       y="9"
       ry="0.37795275" />
    <rect
       style="fill:#ff0000;stroke-width:0.2"
       id="rect459"
       width="1"
       height="1"
       x="0.54467201"
       y="9"
       ry="0.37795275" />
    <rect
       style="fill:#ff0000;stroke-width:0.2"
       id="rect460"
       width="1"
       height="1"
       x="8.544672"
       y="9"
       ry="0.37795275" />
    <rect
       style="fill:#ff0000;stroke-width:0.2"
       id="rect461"
       width="1"
       height="1"
       x="0"
       y="0"
       ry="0.37795275" />
    <rect
       style="fill:#ff0000;stroke-width:0.2"
       id="rect462"
       width="1"
       height="1"
       x="9"
       y="0"
       ry="0.37795275" />
    <rect
       style="fill:#ff0000;stroke-width:0.2"
       id="rect463"
       width="1"
       height="1"
       x="2"
       y="2"
       ry="0.37795275" />
    <rect
       style="fill:#ff0000;stroke-width:0.2"
       id="rect464"
       width="1"
       height="1"
       x="7"
       y="2"
       ry="0.37795275" />
  </g>
</svg>
